<?xml version="1.0" encoding="UTF-8"?>
<svg xmlns="http://www.w3.org/2000/svg" xmlns:xlink="http://www.w3.org/1999/xlink" width="63pt" height="54pt" viewBox="0 0 63 54" version="1.1">
<defs>
<clipPath id="clip1">
  <path d="M 1 5 L 62 5 L 62 49 L 1 49 Z M 1 5 "/>
</clipPath>
<clipPath id="clip2">
  <path d="M 13.816406 40.347656 C 12.128906 40.347656 10.589844 38.957031 10.589844 37.261719 C 10.589844 35.5625 11.972656 34.175781 13.816406 34.175781 C 15.660156 34.175781 17.042969 35.5625 17.042969 37.261719 C 17.042969 38.957031 15.507812 40.347656 13.816406 40.347656 Z M 53.460938 23.527344 C 53.152344 21.0625 51.617188 19.054688 49.621094 17.511719 L 48.851562 16.894531 L 48.238281 17.667969 C 47.007812 19.054688 46.546875 21.523438 46.699219 23.375 C 46.855469 24.761719 47.316406 26.152344 48.082031 27.230469 C 47.46875 27.539062 46.699219 27.847656 46.085938 28.15625 C 44.703125 28.621094 43.320312 28.773438 41.9375 28.773438 L 2.140625 28.773438 L 1.984375 29.699219 C 1.679688 32.632812 2.140625 35.71875 3.367188 38.496094 L 3.984375 39.574219 L 3.984375 39.730469 C 7.671875 45.902344 14.277344 48.679688 21.5 48.679688 C 35.328125 48.679688 46.699219 42.660156 52.078125 29.699219 C 55.613281 29.855469 59.148438 28.929688 60.835938 25.535156 L 61.296875 24.761719 L 60.53125 24.300781 C 58.53125 23.066406 55.765625 22.910156 53.460938 23.527344 Z M 33.640625 21.0625 L 27.648438 21.0625 L 27.648438 27.078125 L 33.640625 27.078125 Z M 33.640625 13.5 L 27.648438 13.5 L 27.648438 19.519531 L 33.640625 19.519531 Z M 33.640625 5.785156 L 27.648438 5.785156 L 27.648438 11.804688 L 33.640625 11.804688 Z M 41.015625 21.0625 L 35.023438 21.0625 L 35.023438 27.078125 L 41.015625 27.078125 Z M 18.734375 21.0625 L 12.742188 21.0625 L 12.742188 27.078125 L 18.734375 27.078125 Z M 26.265625 21.0625 L 20.269531 21.0625 L 20.269531 27.078125 L 26.265625 27.078125 Z M 11.359375 21.0625 L 5.367188 21.0625 L 5.367188 27.078125 L 11.359375 27.078125 Z M 26.265625 13.5 L 20.269531 13.5 L 20.269531 19.519531 L 26.265625 19.519531 Z M 18.734375 13.5 L 12.742188 13.5 L 12.742188 19.519531 L 18.734375 19.519531 Z M 18.734375 13.5 "/>
</clipPath>
</defs>
<g id="surface1">
<path style=" stroke:none;fill-rule:nonzero;fill:rgb(0%,52.941176%,78.823529%);fill-opacity:1;" d="M 13.816406 40.347656 C 12.128906 40.347656 10.589844 38.957031 10.589844 37.261719 C 10.589844 35.5625 11.972656 34.175781 13.816406 34.175781 C 15.660156 34.175781 17.042969 35.5625 17.042969 37.261719 C 17.042969 38.957031 15.507812 40.347656 13.816406 40.347656 Z M 53.460938 23.527344 C 53.152344 21.0625 51.617188 19.054688 49.621094 17.511719 L 48.851562 16.894531 L 48.238281 17.667969 C 47.007812 19.054688 46.546875 21.523438 46.699219 23.375 C 46.855469 24.761719 47.316406 26.152344 48.082031 27.230469 C 47.46875 27.539062 46.699219 27.847656 46.085938 28.15625 C 44.703125 28.621094 43.320312 28.773438 41.9375 28.773438 L 2.140625 28.773438 L 1.984375 29.699219 C 1.679688 32.632812 2.140625 35.71875 3.367188 38.496094 L 3.984375 39.574219 L 3.984375 39.730469 C 7.671875 45.902344 14.277344 48.679688 21.5 48.679688 C 35.328125 48.679688 46.699219 42.660156 52.078125 29.699219 C 55.613281 29.855469 59.148438 28.929688 60.835938 25.535156 L 61.296875 24.761719 L 60.53125 24.300781 C 58.53125 23.066406 55.765625 22.910156 53.460938 23.527344 Z M 33.640625 21.0625 L 27.648438 21.0625 L 27.648438 27.078125 L 33.640625 27.078125 Z M 33.640625 13.5 L 27.648438 13.5 L 27.648438 19.519531 L 33.640625 19.519531 Z M 33.640625 5.785156 L 27.648438 5.785156 L 27.648438 11.804688 L 33.640625 11.804688 Z M 41.015625 21.0625 L 35.023438 21.0625 L 35.023438 27.078125 L 41.015625 27.078125 Z M 18.734375 21.0625 L 12.742188 21.0625 L 12.742188 27.078125 L 18.734375 27.078125 Z M 26.265625 21.0625 L 20.269531 21.0625 L 20.269531 27.078125 L 26.265625 27.078125 Z M 11.359375 21.0625 L 5.367188 21.0625 L 5.367188 27.078125 L 11.359375 27.078125 Z M 26.265625 13.5 L 20.269531 13.5 L 20.269531 19.519531 L 26.265625 19.519531 Z M 18.734375 13.5 L 12.742188 13.5 L 12.742188 19.519531 L 18.734375 19.519531 Z M 18.734375 13.5 "/>
<g clip-path="url(#clip1)" clip-rule="nonzero">
<g clip-path="url(#clip2)" clip-rule="nonzero">
<rect x="0" y="0" width="63" height="54" style="fill:rgb(0%,52.941176%,78.823529%);fill-opacity:1;stroke:none;"/>
</g>
</g>
</g>
</svg>
