<?xml version="1.0" encoding="UTF-8"?>
<svg xmlns="http://www.w3.org/2000/svg" xmlns:xlink="http://www.w3.org/1999/xlink" width="64pt" height="64pt" viewBox="0 0 64 64" version="1.1">
<g id="surface1">
<path style=" stroke:none;fill-rule:nonzero;fill:rgb(54.509804%,76.470588%,29.019608%);fill-opacity:1;" d="M 32 4.933594 C 31.28125 4.933594 30.535156 5.121094 29.921875 5.464844 L 10.078125 16.933594 C 8.800781 17.679688 8 19.066406 8 20.558594 L 8 43.441406 C 8 44.933594 8.800781 46.320312 10.078125 47.066406 L 15.28125 50.054688 C 17.8125 51.28125 18.667969 51.308594 19.839844 51.308594 C 23.574219 51.308594 25.734375 49.039062 25.734375 45.09375 L 25.734375 22.507812 C 25.734375 22.1875 25.464844 21.921875 25.148438 21.921875 L 22.667969 21.921875 C 22.320312 21.921875 22.054688 22.1875 22.054688 22.507812 L 22.054688 45.09375 C 22.054688 46.851562 20.238281 48.585938 17.332031 47.121094 L 11.867188 44 C 11.679688 43.867188 11.574219 43.652344 11.574219 43.441406 L 11.574219 20.558594 C 11.574219 20.320312 11.679688 20.105469 11.867188 20 L 31.707031 8.558594 C 31.867188 8.453125 32.132812 8.453125 32.292969 8.558594 L 52.132812 20 C 52.320312 20.105469 52.425781 20.320312 52.425781 20.558594 L 52.425781 43.441406 C 52.425781 43.652344 52.320312 43.867188 52.132812 44 L 32.292969 55.441406 C 32.132812 55.546875 31.867188 55.546875 31.679688 55.441406 L 26.667969 52.398438 C 26.453125 52.320312 26.238281 52.292969 26.105469 52.375 C 24.691406 53.171875 24.425781 53.332031 23.121094 53.734375 C 22.800781 53.839844 22.292969 54.027344 23.308594 54.585938 L 29.921875 58.507812 C 30.558594 58.878906 31.253906 59.066406 32 59.066406 C 32.746094 59.066406 33.441406 58.878906 34.078125 58.507812 L 53.921875 47.066406 C 55.199219 46.320312 56 44.933594 56 43.441406 L 56 20.558594 C 56 19.066406 55.199219 17.679688 53.921875 16.933594 L 34.078125 5.464844 C 33.464844 5.121094 32.746094 4.933594 32 4.933594 M 37.332031 21.332031 C 31.679688 21.332031 28.292969 23.707031 28.292969 27.707031 C 28.292969 32 31.652344 33.253906 37.09375 33.785156 C 43.574219 34.425781 44.078125 35.386719 44.078125 36.667969 C 44.078125 38.878906 42.292969 39.8125 38.132812 39.8125 C 32.851562 39.8125 31.734375 38.507812 31.332031 35.894531 C 31.28125 35.625 31.039062 35.414062 30.746094 35.414062 L 28.1875 35.414062 C 27.867188 35.414062 27.625 35.652344 27.625 36 C 27.625 39.308594 29.441406 43.308594 38.132812 43.308594 C 44.398438 43.308594 48 40.828125 48 36.507812 C 48 32.214844 45.121094 31.09375 39.011719 30.265625 C 32.851562 29.464844 32.238281 29.039062 32.238281 27.601562 C 32.238281 26.398438 32.773438 24.800781 37.332031 24.800781 C 41.332031 24.800781 42.90625 25.679688 43.519531 28.425781 C 43.574219 28.691406 43.8125 28.878906 44.078125 28.878906 L 46.667969 28.878906 C 46.800781 28.878906 46.960938 28.828125 47.066406 28.691406 C 47.171875 28.585938 47.253906 28.425781 47.199219 28.265625 C 46.828125 23.519531 43.679688 21.332031 37.332031 21.332031 Z M 37.332031 21.332031 "/>
</g>
</svg>
