<?xml version="1.0" encoding="UTF-8"?>
<svg xmlns="http://www.w3.org/2000/svg" xmlns:xlink="http://www.w3.org/1999/xlink" width="64pt" height="64pt" viewBox="0 0 64 64" version="1.1">
<g id="surface1">
<path style=" stroke:none;fill-rule:evenodd;fill:rgb(0.784314%,53.333333%,81.960784%);fill-opacity:1;" d="M 58.113281 58.113281 L 5.886719 58.113281 L 5.886719 5.886719 L 58.113281 5.886719 Z M 8.449219 8.449219 L 8.449219 55.550781 L 55.550781 55.550781 L 55.550781 8.449219 Z M 8.449219 8.449219 "/>
<path style=" stroke:none;fill-rule:evenodd;fill:rgb(0.784314%,53.333333%,81.960784%);fill-opacity:1;" d="M 44.773438 30.445312 C 44.472656 30.445312 44.199219 30.453125 43.992188 30.472656 C 42.378906 30.609375 40.875 31.316406 39.84375 32.410156 C 39.328125 32.960938 38.859375 33.746094 38.632812 34.449219 C 38.378906 35.226562 38.382812 35.210938 38.382812 36.429688 C 38.382812 37.980469 38.460938 38.367188 38.992188 39.402344 C 39.523438 40.441406 40.332031 41.289062 41.5 42.03125 C 42.011719 42.355469 43.324219 43.011719 44.394531 43.472656 C 46.726562 44.484375 47.464844 44.949219 47.804688 45.628906 L 47.949219 45.910156 L 47.949219 46.496094 C 47.949219 47.0625 47.945312 47.09375 47.828125 47.328125 C 47.566406 47.867188 46.945312 48.308594 46.152344 48.523438 C 45.851562 48.605469 45.714844 48.617188 45.042969 48.617188 C 44.382812 48.617188 44.226562 48.601562 43.921875 48.527344 C 43.398438 48.394531 42.953125 48.210938 42.609375 47.980469 C 42.183594 47.699219 41.347656 46.859375 41.007812 46.367188 C 40.859375 46.152344 40.710938 45.972656 40.675781 45.972656 C 40.621094 45.972656 37.742188 47.617188 37.242188 47.9375 C 37.074219 48.042969 37.03125 48.09375 37.03125 48.179688 C 37.03125 48.359375 37.703125 49.375 38.226562 49.992188 C 39.300781 51.25 41.453125 52.355469 43.355469 52.632812 C 44.109375 52.742188 45.359375 52.78125 46.234375 52.714844 C 46.808594 52.671875 47.386719 52.566406 48.007812 52.382812 C 50.257812 51.722656 51.792969 50.320312 52.363281 48.40625 C 52.59375 47.625 52.6875 46.664062 52.613281 45.851562 C 52.453125 44.1875 51.941406 43.011719 50.933594 41.996094 C 49.996094 41.046875 48.710938 40.285156 46.171875 39.171875 C 43.96875 38.207031 43.394531 37.832031 43.078125 37.15625 C 42.804688 36.570312 42.855469 35.765625 43.199219 35.261719 C 43.605469 34.675781 44.425781 34.386719 45.34375 34.507812 C 46.199219 34.621094 46.75 34.960938 47.292969 35.703125 C 47.570312 36.085938 47.765625 36.285156 47.859375 36.285156 C 47.953125 36.285156 48.351562 36.042969 49.582031 35.222656 C 50.835938 34.390625 51.230469 34.109375 51.257812 34.023438 C 51.300781 33.890625 51.105469 33.582031 50.527344 32.875 C 49.375 31.460938 48.015625 30.707031 46.273438 30.519531 C 45.84375 30.472656 45.277344 30.445312 44.773438 30.445312 Z M 30.90625 30.683594 C 29.871094 30.683594 28.6875 30.683594 27.375 30.6875 C 20.5625 30.691406 18.980469 30.703125 18.9375 30.75 C 18.898438 30.789062 18.886719 31.207031 18.886719 32.765625 L 18.886719 34.730469 L 25.082031 34.753906 L 25.082031 43.523438 C 25.082031 48.34375 25.09375 52.332031 25.109375 52.382812 L 25.132812 52.472656 L 27.382812 52.472656 C 29.398438 52.472656 29.636719 52.46875 29.660156 52.410156 C 29.671875 52.375 29.683594 48.386719 29.683594 43.550781 L 29.683594 34.753906 L 32.78125 34.742188 L 35.878906 34.734375 L 35.878906 32.742188 C 35.878906 31.019531 35.871094 30.75 35.816406 30.714844 C 35.789062 30.699219 34.007812 30.6875 30.90625 30.683594 Z M 30.90625 30.683594 "/>
</g>
</svg>
