<?xml version="1.0" encoding="UTF-8"?>
<svg xmlns="http://www.w3.org/2000/svg" xmlns:xlink="http://www.w3.org/1999/xlink" width="63pt" height="56pt" viewBox="0 0 63 56" version="1.1">
<g id="surface1">
<path style=" stroke:none;fill-rule:nonzero;fill:rgb(0%,56.470588%,0%);fill-opacity:1;" d="M 20.152344 11.675781 L 21.449219 12.464844 L 21.425781 12.5 L 21.011719 13.152344 L 20.644531 13.804688 L 20.316406 14.460938 L 20.027344 15.117188 L 19.78125 15.777344 L 19.570312 16.433594 L 19.394531 17.085938 L 19.25 17.738281 L 19.140625 18.382812 L 19.0625 19.027344 L 19.011719 19.660156 L 18.988281 20.289062 L 18.992188 20.90625 L 19.019531 21.515625 L 19.070312 22.113281 L 19.144531 22.699219 L 19.234375 23.269531 L 19.34375 23.828125 L 19.46875 24.367188 L 19.609375 24.890625 L 19.761719 25.390625 L 19.929688 25.875 L 20.101562 26.335938 L 20.285156 26.773438 L 20.472656 27.183594 L 20.667969 27.570312 L 20.863281 27.929688 L 21.058594 28.257812 L 21.25 28.554688 L 21.441406 28.820312 L 21.621094 29.050781 L 21.792969 29.242188 L 20.691406 30.292969 L 20.460938 30.03125 L 20.230469 29.738281 L 20 29.417969 L 19.773438 29.066406 L 19.546875 28.6875 L 19.324219 28.28125 L 19.109375 27.847656 L 18.898438 27.386719 L 18.695312 26.902344 L 18.503906 26.394531 L 18.320312 25.867188 L 18.152344 25.3125 L 18 24.742188 L 17.863281 24.148438 L 17.742188 23.539062 L 17.640625 22.914062 L 17.5625 22.273438 L 17.507812 21.617188 L 17.476562 20.945312 L 17.472656 20.265625 L 17.5 19.574219 L 17.554688 18.871094 L 17.640625 18.160156 L 17.761719 17.445312 L 17.917969 16.722656 L 18.117188 15.996094 L 18.351562 15.269531 L 18.625 14.539062 L 18.945312 13.808594 L 19.308594 13.082031 L 19.714844 12.359375 L 20.171875 11.644531 Z M 20.171875 11.644531 C 20.40625 11.292969 20.878906 11.203125 21.226562 11.4375 C 21.570312 11.675781 21.660156 12.152344 21.425781 12.5 Z M 37.691406 4.851562 L 37.605469 6.378906 L 36.941406 6.351562 L 36.277344 6.34375 L 35.613281 6.351562 L 34.953125 6.378906 L 34.300781 6.425781 L 33.648438 6.484375 L 33.003906 6.5625 L 32.367188 6.660156 L 31.738281 6.769531 L 31.121094 6.894531 L 30.507812 7.035156 L 29.90625 7.1875 L 29.316406 7.359375 L 28.738281 7.539062 L 28.175781 7.734375 L 27.625 7.941406 L 27.089844 8.160156 L 26.570312 8.390625 L 26.066406 8.628906 L 25.582031 8.882812 L 25.117188 9.140625 L 24.667969 9.414062 L 24.242188 9.691406 L 23.835938 9.976562 L 23.453125 10.269531 L 23.089844 10.570312 L 22.753906 10.878906 L 22.441406 11.1875 L 22.152344 11.503906 L 21.890625 11.824219 L 21.65625 12.144531 L 21.449219 12.464844 L 20.152344 11.675781 L 20.410156 11.273438 L 20.699219 10.882812 L 21.011719 10.5 L 21.347656 10.128906 L 21.714844 9.765625 L 22.101562 9.414062 L 22.511719 9.074219 L 22.941406 8.742188 L 23.394531 8.425781 L 23.867188 8.117188 L 24.359375 7.820312 L 24.867188 7.535156 L 25.394531 7.261719 L 25.9375 7 L 26.5 6.75 L 27.074219 6.515625 L 27.664062 6.296875 L 28.269531 6.085938 L 28.882812 5.894531 L 29.511719 5.714844 L 30.152344 5.550781 L 30.800781 5.398438 L 31.460938 5.269531 L 32.128906 5.148438 L 32.804688 5.050781 L 33.488281 4.96875 L 34.175781 4.902344 L 34.871094 4.851562 L 35.570312 4.824219 L 36.273438 4.8125 L 36.980469 4.824219 Z M 59.433594 23.171875 L 57.925781 23.300781 L 57.796875 22.148438 L 57.609375 21.046875 L 57.375 19.996094 L 57.085938 18.996094 L 56.753906 18.042969 L 56.375 17.136719 L 55.953125 16.277344 L 55.492188 15.457031 L 54.992188 14.683594 L 54.453125 13.953125 L 53.882812 13.257812 L 53.277344 12.605469 L 52.644531 11.988281 L 51.980469 11.410156 L 51.289062 10.867188 L 50.574219 10.359375 L 49.835938 9.886719 L 49.078125 9.449219 L 48.300781 9.042969 L 47.507812 8.667969 L 46.703125 8.324219 L 45.886719 8.011719 L 45.058594 7.730469 L 44.226562 7.476562 L 43.390625 7.25 L 42.550781 7.050781 L 41.710938 6.878906 L 40.875 6.730469 L 40.042969 6.609375 L 39.222656 6.507812 L 38.40625 6.433594 L 37.605469 6.378906 L 37.691406 4.851562 L 38.527344 4.910156 L 39.382812 4.992188 L 40.246094 5.09375 L 41.117188 5.222656 L 41.992188 5.375 L 42.875 5.558594 L 43.761719 5.769531 L 44.644531 6.007812 L 45.523438 6.277344 L 46.398438 6.574219 L 47.269531 6.90625 L 48.125 7.273438 L 48.972656 7.675781 L 49.804688 8.109375 L 50.621094 8.582031 L 51.417969 9.09375 L 52.191406 9.640625 L 52.941406 10.230469 L 53.664062 10.859375 L 54.359375 11.535156 L 55.019531 12.25 L 55.648438 13.007812 L 56.238281 13.8125 L 56.785156 14.664062 L 57.292969 15.558594 L 57.753906 16.503906 L 58.167969 17.492188 L 58.53125 18.53125 L 58.84375 19.617188 L 59.097656 20.75 L 59.296875 21.9375 Z M 56.191406 36.507812 L 54.859375 35.773438 L 55.019531 35.476562 L 55.179688 35.167969 L 55.339844 34.851562 L 55.496094 34.527344 L 55.65625 34.191406 L 55.8125 33.851562 L 55.964844 33.5 L 56.113281 33.144531 L 56.261719 32.78125 L 56.40625 32.410156 L 56.550781 32.03125 L 56.6875 31.648438 L 56.820312 31.261719 L 56.945312 30.867188 L 57.066406 30.46875 L 57.183594 30.066406 L 57.292969 29.660156 L 57.398438 29.25 L 57.492188 28.835938 L 57.582031 28.417969 L 57.664062 28 L 57.734375 27.578125 L 57.800781 27.152344 L 57.855469 26.726562 L 57.898438 26.296875 L 57.9375 25.871094 L 57.960938 25.441406 L 57.976562 25.011719 L 57.980469 24.585938 L 57.972656 24.15625 L 57.957031 23.730469 L 57.925781 23.300781 L 59.433594 23.171875 L 59.46875 23.640625 L 59.488281 24.109375 L 59.496094 24.582031 L 59.492188 25.046875 L 59.476562 25.515625 L 59.449219 25.980469 L 59.410156 26.445312 L 59.359375 26.90625 L 59.300781 27.367188 L 59.230469 27.820312 L 59.152344 28.273438 L 59.066406 28.722656 L 58.972656 29.167969 L 58.871094 29.609375 L 58.757812 30.046875 L 58.644531 30.480469 L 58.519531 30.910156 L 58.390625 31.332031 L 58.257812 31.746094 L 58.117188 32.15625 L 57.972656 32.5625 L 57.824219 32.957031 L 57.671875 33.347656 L 57.511719 33.734375 L 57.355469 34.109375 L 57.191406 34.476562 L 57.027344 34.835938 L 56.863281 35.191406 L 56.695312 35.53125 L 56.527344 35.867188 L 56.359375 36.191406 Z M 25.757812 45.035156 L 26.207031 43.578125 L 27.382812 43.921875 L 28.558594 44.21875 L 29.730469 44.46875 L 30.890625 44.675781 L 32.046875 44.835938 L 33.1875 44.953125 L 34.320312 45.027344 L 35.441406 45.058594 L 36.546875 45.050781 L 37.636719 45.003906 L 38.710938 44.914062 L 39.765625 44.789062 L 40.800781 44.628906 L 41.816406 44.425781 L 42.808594 44.191406 L 43.777344 43.925781 L 44.71875 43.621094 L 45.632812 43.289062 L 46.519531 42.921875 L 47.378906 42.527344 L 48.207031 42.101562 L 49 41.644531 L 49.757812 41.164062 L 50.484375 40.65625 L 51.171875 40.125 L 51.820312 39.566406 L 52.433594 38.984375 L 53.003906 38.382812 L 53.535156 37.761719 L 54.019531 37.117188 L 54.464844 36.453125 L 54.859375 35.773438 L 56.191406 36.507812 L 55.746094 37.269531 L 55.253906 38.007812 L 54.714844 38.71875 L 54.128906 39.40625 L 53.5 40.070312 L 52.832031 40.703125 L 52.125 41.3125 L 51.378906 41.890625 L 50.59375 42.4375 L 49.777344 42.957031 L 48.925781 43.445312 L 48.039062 43.898438 L 47.125 44.324219 L 46.179688 44.714844 L 45.207031 45.070312 L 44.207031 45.390625 L 43.183594 45.671875 L 42.136719 45.921875 L 41.066406 46.132812 L 39.972656 46.304688 L 38.863281 46.4375 L 37.730469 46.527344 L 36.585938 46.578125 L 35.425781 46.585938 L 34.25 46.554688 L 33.0625 46.476562 L 31.863281 46.351562 L 30.65625 46.183594 L 29.441406 45.96875 L 28.21875 45.707031 L 26.988281 45.394531 Z M 2.496094 45.269531 L 4.003906 45.097656 L 2.933594 44.488281 L 3.710938 44.144531 L 4.492188 43.824219 L 5.273438 43.53125 L 6.058594 43.265625 L 6.839844 43.027344 L 7.625 42.808594 L 8.40625 42.617188 L 9.1875 42.449219 L 9.964844 42.304688 L 10.742188 42.179688 L 11.511719 42.074219 L 12.28125 41.992188 L 13.046875 41.929688 L 13.808594 41.886719 L 14.566406 41.863281 L 15.316406 41.851562 L 16.0625 41.863281 L 16.800781 41.890625 L 17.53125 41.929688 L 18.257812 41.988281 L 18.972656 42.058594 L 19.679688 42.140625 L 20.378906 42.238281 L 21.070312 42.347656 L 21.75 42.46875 L 22.421875 42.597656 L 23.082031 42.742188 L 23.730469 42.890625 L 24.367188 43.050781 L 24.992188 43.21875 L 25.605469 43.394531 L 26.207031 43.578125 L 25.757812 45.035156 L 25.179688 44.859375 L 24.589844 44.691406 L 23.988281 44.53125 L 23.375 44.378906 L 22.753906 44.234375 L 22.121094 44.097656 L 21.476562 43.96875 L 20.820312 43.855469 L 20.160156 43.75 L 19.488281 43.65625 L 18.808594 43.574219 L 18.125 43.507812 L 17.429688 43.453125 L 16.730469 43.414062 L 16.027344 43.390625 L 15.316406 43.382812 L 14.597656 43.390625 L 13.878906 43.414062 L 13.152344 43.453125 L 12.425781 43.515625 L 11.691406 43.59375 L 10.960938 43.691406 L 10.222656 43.808594 L 9.484375 43.945312 L 8.742188 44.105469 L 8.003906 44.289062 L 7.261719 44.492188 L 6.519531 44.71875 L 5.78125 44.972656 L 5.042969 45.25 L 4.304688 45.550781 L 3.566406 45.878906 Z M 3.566406 45.878906 C 3.1875 46.054688 2.734375 45.886719 2.5625 45.503906 C 2.386719 45.121094 2.550781 44.664062 2.933594 44.488281 Z M 3.640625 41.859375 L 4.003906 45.097656 L 2.496094 45.269531 L 2.132812 42.03125 Z M 20.691406 30.292969 L 21.792969 29.242188 L 21.15625 30.527344 L 20.441406 30.46875 L 19.707031 30.445312 L 18.957031 30.464844 L 18.195312 30.523438 L 17.421875 30.613281 L 16.648438 30.746094 L 15.867188 30.910156 L 15.085938 31.105469 L 14.308594 31.335938 L 13.539062 31.59375 L 12.773438 31.882812 L 12.023438 32.203125 L 11.285156 32.546875 L 10.566406 32.914062 L 9.867188 33.304688 L 9.191406 33.71875 L 8.539062 34.152344 L 7.917969 34.601562 L 7.324219 35.074219 L 6.769531 35.554688 L 6.25 36.054688 L 5.769531 36.5625 L 5.332031 37.082031 L 4.941406 37.605469 L 4.597656 38.136719 L 4.300781 38.671875 L 4.054688 39.207031 L 3.863281 39.742188 L 3.722656 40.277344 L 3.640625 40.808594 L 3.613281 41.335938 L 3.640625 41.859375 L 2.132812 42.03125 L 2.09375 41.335938 L 2.132812 40.644531 L 2.238281 39.960938 L 2.414062 39.289062 L 2.652344 38.628906 L 2.949219 37.980469 L 3.300781 37.347656 L 3.699219 36.730469 L 4.148438 36.128906 L 4.640625 35.542969 L 5.179688 34.972656 L 5.75 34.425781 L 6.359375 33.894531 L 7.003906 33.382812 L 7.675781 32.894531 L 8.378906 32.425781 L 9.105469 31.984375 L 9.855469 31.5625 L 10.625 31.171875 L 11.414062 30.804688 L 12.214844 30.464844 L 13.03125 30.15625 L 13.855469 29.878906 L 14.6875 29.632812 L 15.527344 29.421875 L 16.367188 29.242188 L 17.207031 29.101562 L 18.046875 29 L 18.878906 28.9375 L 19.707031 28.917969 L 20.523438 28.941406 L 21.328125 29.007812 Z M 21.328125 29.007812 C 21.742188 29.054688 22.042969 29.433594 21.996094 29.855469 C 21.949219 30.273438 21.574219 30.574219 21.15625 30.527344 Z M 30.453125 32.84375 L 30.335938 34.367188 L 29.472656 34.296875 L 28.605469 34.222656 L 27.738281 34.144531 L 26.867188 34.070312 L 26 33.996094 L 25.132812 33.929688 L 24.269531 33.871094 L 23.410156 33.820312 L 22.558594 33.785156 L 21.710938 33.761719 L 20.878906 33.757812 L 20.050781 33.777344 L 19.238281 33.816406 L 18.4375 33.878906 L 17.648438 33.96875 L 16.878906 34.085938 L 16.125 34.234375 L 15.390625 34.417969 L 14.675781 34.632812 L 13.980469 34.890625 L 13.308594 35.183594 L 12.65625 35.515625 L 12.027344 35.894531 L 11.421875 36.320312 L 10.839844 36.792969 L 10.28125 37.316406 L 9.746094 37.898438 L 9.238281 38.535156 L 8.753906 39.234375 L 8.300781 40 L 7.875 40.835938 L 7.476562 41.738281 L 6.070312 41.164062 L 6.503906 40.175781 L 6.972656 39.257812 L 7.480469 38.40625 L 8.023438 37.621094 L 8.597656 36.898438 L 9.207031 36.238281 L 9.84375 35.636719 L 10.511719 35.097656 L 11.207031 34.609375 L 11.921875 34.179688 L 12.660156 33.800781 L 13.421875 33.46875 L 14.199219 33.183594 L 14.992188 32.945312 L 15.796875 32.742188 L 16.617188 32.582031 L 17.449219 32.453125 L 18.292969 32.359375 L 19.144531 32.289062 L 20 32.25 L 20.863281 32.234375 L 21.734375 32.238281 L 22.609375 32.257812 L 23.484375 32.296875 L 24.363281 32.34375 L 25.242188 32.40625 L 26.121094 32.472656 L 26.996094 32.546875 L 28.738281 32.703125 L 29.597656 32.773438 Z M 30.453125 32.84375 C 30.867188 32.878906 31.179688 33.246094 31.148438 33.664062 C 31.117188 34.085938 30.75 34.402344 30.335938 34.367188 Z M 42.449219 30.269531 L 43.597656 31.269531 L 43.257812 31.644531 L 42.90625 31.996094 L 42.542969 32.320312 L 42.171875 32.617188 L 41.792969 32.890625 L 41.402344 33.144531 L 41.007812 33.371094 L 40.605469 33.574219 L 40.199219 33.757812 L 39.785156 33.921875 L 39.367188 34.0625 L 38.945312 34.1875 L 38.523438 34.292969 L 38.09375 34.382812 L 37.664062 34.460938 L 37.230469 34.519531 L 36.796875 34.566406 L 36.363281 34.601562 L 35.929688 34.625 L 35.492188 34.640625 L 35.054688 34.644531 L 34.621094 34.640625 L 34.183594 34.632812 L 33.75 34.613281 L 33.3125 34.59375 L 32.882812 34.566406 L 32.449219 34.535156 L 32.023438 34.503906 L 31.59375 34.46875 L 31.171875 34.433594 L 30.75 34.402344 L 30.335938 34.367188 L 30.453125 32.84375 L 30.871094 32.878906 L 31.714844 32.949219 L 32.980469 33.042969 L 33.816406 33.089844 L 34.230469 33.105469 L 34.644531 33.113281 L 35.054688 33.117188 L 35.460938 33.113281 L 35.863281 33.101562 L 36.261719 33.078125 L 36.65625 33.046875 L 37.046875 33.003906 L 37.429688 32.949219 L 37.808594 32.882812 L 38.183594 32.804688 L 38.550781 32.714844 L 38.910156 32.605469 L 39.265625 32.484375 L 39.613281 32.347656 L 39.953125 32.195312 L 40.289062 32.023438 L 40.617188 31.835938 L 40.941406 31.628906 L 41.253906 31.402344 L 41.5625 31.152344 L 41.867188 30.882812 L 42.164062 30.585938 Z M 42.449219 30.269531 C 42.726562 29.949219 43.203125 29.914062 43.519531 30.191406 C 43.835938 30.46875 43.871094 30.949219 43.597656 31.269531 Z M 39.933594 20.144531 L 40.417969 18.699219 L 40.875 18.871094 L 41.308594 19.074219 L 41.726562 19.300781 L 42.125 19.558594 L 42.5 19.835938 L 42.859375 20.136719 L 43.191406 20.460938 L 43.503906 20.800781 L 43.796875 21.164062 L 44.0625 21.539062 L 44.308594 21.929688 L 44.535156 22.335938 L 44.734375 22.753906 L 44.910156 23.183594 L 45.0625 23.621094 L 45.191406 24.066406 L 45.292969 24.519531 L 45.371094 24.980469 L 45.425781 25.445312 L 45.453125 25.910156 L 45.453125 26.378906 L 45.425781 26.851562 L 45.375 27.320312 L 45.292969 27.785156 L 45.1875 28.25 L 45.046875 28.707031 L 44.882812 29.160156 L 44.683594 29.605469 L 44.460938 30.039062 L 44.203125 30.460938 L 43.914062 30.871094 L 43.597656 31.269531 L 42.449219 30.269531 L 42.707031 29.949219 L 42.933594 29.625 L 43.140625 29.285156 L 43.320312 28.9375 L 43.476562 28.582031 L 43.609375 28.222656 L 43.722656 27.851562 L 43.808594 27.480469 L 43.875 27.101562 L 43.917969 26.722656 L 43.9375 26.339844 L 43.9375 25.957031 L 43.914062 25.574219 L 43.871094 25.195312 L 43.804688 24.820312 L 43.722656 24.449219 L 43.617188 24.085938 L 43.492188 23.726562 L 43.347656 23.378906 L 43.1875 23.039062 L 43.003906 22.710938 L 42.808594 22.394531 L 42.589844 22.089844 L 42.359375 21.800781 L 42.109375 21.53125 L 41.84375 21.273438 L 41.5625 21.035156 L 41.269531 20.816406 L 40.957031 20.617188 L 40.628906 20.4375 L 40.289062 20.28125 Z M 39.933594 20.144531 C 39.539062 20.011719 39.324219 19.578125 39.457031 19.179688 C 39.589844 18.777344 40.023438 18.5625 40.417969 18.699219 Z M 33.578125 19.992188 L 32.207031 20.644531 L 32.519531 19.652344 L 32.730469 19.539062 L 32.945312 19.429688 L 33.167969 19.324219 L 33.394531 19.222656 L 33.625 19.125 L 33.859375 19.035156 L 34.097656 18.949219 L 34.339844 18.871094 L 34.585938 18.792969 L 34.835938 18.722656 L 35.085938 18.660156 L 35.339844 18.597656 L 35.597656 18.542969 L 35.855469 18.492188 L 36.113281 18.449219 L 36.375 18.414062 L 36.632812 18.382812 L 36.894531 18.355469 L 37.15625 18.335938 L 37.417969 18.320312 L 37.679688 18.3125 L 37.9375 18.3125 L 38.199219 18.320312 L 38.453125 18.332031 L 38.710938 18.351562 L 38.960938 18.378906 L 39.210938 18.410156 L 39.460938 18.453125 L 39.707031 18.5 L 39.949219 18.558594 L 40.1875 18.625 L 40.417969 18.699219 L 39.933594 20.144531 L 39.757812 20.089844 L 39.574219 20.039062 L 39.382812 19.992188 L 39.1875 19.953125 L 38.988281 19.921875 L 38.78125 19.894531 L 38.574219 19.871094 L 38.359375 19.855469 L 38.144531 19.84375 L 37.925781 19.839844 L 37.703125 19.839844 L 37.480469 19.847656 L 37.253906 19.859375 L 36.800781 19.898438 L 36.574219 19.925781 L 36.347656 19.960938 L 36.121094 20 L 35.894531 20.042969 L 35.671875 20.089844 L 35.449219 20.140625 L 35.230469 20.199219 L 35.011719 20.261719 L 34.800781 20.324219 L 34.589844 20.394531 L 34.382812 20.46875 L 34.183594 20.546875 L 33.988281 20.628906 L 33.796875 20.710938 L 33.613281 20.800781 L 33.433594 20.890625 L 33.261719 20.984375 Z M 33.261719 20.984375 C 32.898438 21.191406 32.4375 21.0625 32.230469 20.695312 C 32.023438 20.324219 32.152344 19.859375 32.519531 19.652344 Z M 33.652344 23.726562 L 32.207031 20.644531 L 33.578125 19.992188 L 35.023438 23.074219 L 34.539062 24.136719 Z M 35.023438 23.074219 C 35.203125 23.453125 35.042969 23.910156 34.664062 24.089844 C 34.285156 24.269531 33.832031 24.109375 33.652344 23.726562 Z M 37.695312 21.972656 L 37.859375 23.492188 L 37.75 23.503906 L 37.445312 23.539062 L 37.347656 23.550781 L 37.25 23.566406 L 37.152344 23.578125 L 37.058594 23.59375 L 36.964844 23.605469 L 36.867188 23.617188 L 36.777344 23.632812 L 36.496094 23.679688 L 36.402344 23.699219 L 36.308594 23.714844 L 36.210938 23.734375 L 36.117188 23.753906 L 36.019531 23.773438 L 35.917969 23.792969 L 35.714844 23.839844 L 35.503906 23.886719 L 35.394531 23.914062 L 35.28125 23.941406 L 35.046875 24.003906 L 34.925781 24.035156 L 34.800781 24.066406 L 34.671875 24.101562 L 34.539062 24.136719 L 34.140625 22.664062 L 34.277344 22.625 L 34.542969 22.554688 L 34.671875 22.523438 L 34.796875 22.492188 L 34.917969 22.460938 L 35.035156 22.429688 L 35.269531 22.375 L 35.382812 22.347656 L 35.710938 22.277344 L 35.816406 22.253906 L 36.027344 22.214844 L 36.128906 22.195312 L 36.234375 22.175781 L 36.335938 22.160156 L 36.4375 22.140625 L 36.742188 22.09375 L 36.847656 22.078125 L 36.949219 22.066406 L 37.050781 22.050781 L 37.15625 22.039062 L 37.261719 22.023438 L 37.367188 22.011719 L 37.585938 21.988281 Z M 37.695312 21.972656 C 38.109375 21.929688 38.484375 22.230469 38.53125 22.652344 C 38.574219 23.070312 38.273438 23.449219 37.859375 23.492188 Z M 40.699219 30.972656 L 39.835938 29.71875 L 40.214844 29.433594 L 40.5625 29.144531 L 40.867188 28.855469 L 41.140625 28.558594 L 41.378906 28.265625 L 41.585938 27.972656 L 41.757812 27.679688 L 41.898438 27.390625 L 42.011719 27.109375 L 42.09375 26.835938 L 42.148438 26.566406 L 42.179688 26.304688 L 42.183594 26.050781 L 42.164062 25.808594 L 42.121094 25.574219 L 42.058594 25.347656 L 41.972656 25.132812 L 41.867188 24.925781 L 41.738281 24.726562 L 41.585938 24.539062 L 41.410156 24.359375 L 41.214844 24.195312 L 40.992188 24.039062 L 40.742188 23.902344 L 40.472656 23.777344 L 40.171875 23.667969 L 39.851562 23.582031 L 39.503906 23.515625 L 39.128906 23.46875 L 38.730469 23.449219 L 38.304688 23.457031 L 37.859375 23.492188 L 37.695312 21.972656 L 38.234375 21.933594 L 38.753906 21.921875 L 39.253906 21.949219 L 39.730469 22.003906 L 40.191406 22.09375 L 40.625 22.210938 L 41.039062 22.359375 L 41.429688 22.539062 L 41.792969 22.742188 L 42.128906 22.976562 L 42.4375 23.234375 L 42.714844 23.519531 L 42.960938 23.824219 L 43.171875 24.152344 L 43.351562 24.496094 L 43.492188 24.855469 L 43.601562 25.230469 L 43.667969 25.617188 L 43.699219 26.007812 L 43.691406 26.40625 L 43.644531 26.808594 L 43.5625 27.210938 L 43.441406 27.617188 L 43.28125 28.015625 L 43.089844 28.410156 L 42.855469 28.800781 L 42.589844 29.1875 L 42.285156 29.5625 L 41.941406 29.933594 L 41.566406 30.289062 L 41.152344 30.636719 Z M 40.699219 30.972656 C 40.355469 31.214844 39.882812 31.128906 39.644531 30.78125 C 39.40625 30.433594 39.492188 29.960938 39.835938 29.71875 Z M 21.328125 19.097656 L 22.796875 19.464844 L 22.625 20.34375 L 22.542969 21.1875 L 22.542969 21.992188 L 22.625 22.765625 L 22.78125 23.503906 L 23.007812 24.210938 L 23.300781 24.890625 L 23.65625 25.535156 L 24.074219 26.152344 L 24.546875 26.738281 L 25.070312 27.292969 L 25.644531 27.8125 L 26.261719 28.296875 L 26.921875 28.746094 L 27.613281 29.160156 L 28.339844 29.535156 L 29.085938 29.867188 L 29.855469 30.164062 L 30.636719 30.417969 L 31.429688 30.628906 L 32.230469 30.796875 L 33.027344 30.921875 L 33.820312 31.003906 L 34.601562 31.039062 L 35.367188 31.03125 L 36.109375 30.976562 L 36.828125 30.878906 L 37.511719 30.734375 L 38.160156 30.546875 L 38.765625 30.3125 L 39.324219 30.035156 L 39.835938 29.71875 L 40.699219 30.972656 L 40.058594 31.375 L 39.367188 31.714844 L 38.640625 31.992188 L 37.875 32.214844 L 37.085938 32.382812 L 36.265625 32.496094 L 35.429688 32.554688 L 34.574219 32.566406 L 33.707031 32.527344 L 32.835938 32.4375 L 31.957031 32.300781 L 31.082031 32.113281 L 30.210938 31.882812 L 29.351562 31.605469 L 28.507812 31.28125 L 27.683594 30.910156 L 26.882812 30.496094 L 26.109375 30.039062 L 25.371094 29.53125 L 24.671875 28.984375 L 24.015625 28.386719 L 23.410156 27.75 L 22.855469 27.066406 L 22.363281 26.335938 L 21.941406 25.566406 L 21.585938 24.753906 L 21.3125 23.898438 L 21.125 23.003906 L 21.027344 22.074219 L 21.027344 21.109375 L 21.125 20.117188 Z M 21.328125 19.097656 C 21.425781 18.6875 21.835938 18.4375 22.246094 18.539062 C 22.652344 18.640625 22.898438 19.054688 22.796875 19.464844 Z M 54.816406 30.191406 L 53.386719 29.6875 L 53.886719 27.941406 L 54.167969 26.257812 L 54.25 24.644531 L 54.136719 23.101562 L 53.847656 21.625 L 53.390625 20.214844 L 52.78125 18.878906 L 52.03125 17.613281 L 51.144531 16.425781 L 50.136719 15.320312 L 49.015625 14.300781 L 47.800781 13.367188 L 46.5 12.53125 L 45.128906 11.792969 L 43.695312 11.15625 L 42.214844 10.625 L 40.703125 10.207031 L 39.171875 9.90625 L 37.636719 9.71875 L 36.105469 9.65625 L 34.597656 9.71875 L 33.121094 9.90625 L 31.691406 10.226562 L 30.320312 10.675781 L 29.019531 11.261719 L 27.804688 11.984375 L 26.679688 12.847656 L 25.65625 13.859375 L 24.746094 15.015625 L 23.957031 16.332031 L 23.304688 17.8125 L 22.796875 19.464844 L 21.328125 19.097656 L 21.882812 17.277344 L 22.613281 15.628906 L 23.5 14.148438 L 24.527344 12.835938 L 25.6875 11.695312 L 26.957031 10.71875 L 28.324219 9.90625 L 29.773438 9.253906 L 31.292969 8.753906 L 32.859375 8.402344 L 34.46875 8.195312 L 36.105469 8.128906 L 37.757812 8.199219 L 39.410156 8.398438 L 41.050781 8.722656 L 42.671875 9.171875 L 44.253906 9.738281 L 45.789062 10.417969 L 47.265625 11.210938 L 48.667969 12.117188 L 49.984375 13.125 L 51.203125 14.238281 L 52.308594 15.449219 L 53.285156 16.761719 L 54.125 18.164062 L 54.804688 19.660156 L 55.316406 21.238281 L 55.640625 22.898438 L 55.765625 24.628906 L 55.675781 26.425781 L 55.363281 28.28125 Z M 54.816406 30.191406 C 54.679688 30.589844 54.246094 30.800781 53.851562 30.660156 C 53.457031 30.523438 53.246094 30.085938 53.386719 29.6875 Z M 34.265625 43.144531 L 34.382812 41.621094 L 35.1875 41.671875 L 35.984375 41.691406 L 36.773438 41.683594 L 37.554688 41.644531 L 38.328125 41.578125 L 39.089844 41.484375 L 39.839844 41.363281 L 40.582031 41.214844 L 41.308594 41.039062 L 42.023438 40.832031 L 42.726562 40.601562 L 43.417969 40.34375 L 44.089844 40.058594 L 44.75 39.746094 L 45.394531 39.40625 L 46.023438 39.042969 L 46.636719 38.652344 L 47.230469 38.234375 L 47.804688 37.792969 L 48.363281 37.320312 L 48.902344 36.828125 L 49.421875 36.308594 L 49.917969 35.757812 L 50.398438 35.1875 L 50.851562 34.589844 L 51.285156 33.964844 L 51.699219 33.316406 L 52.085938 32.640625 L 52.449219 31.941406 L 52.785156 31.214844 L 53.101562 30.464844 L 53.386719 29.6875 L 54.816406 30.191406 L 54.511719 31.027344 L 54.171875 31.835938 L 53.804688 32.621094 L 53.414062 33.378906 L 52.992188 34.109375 L 52.546875 34.816406 L 52.074219 35.492188 L 51.578125 36.144531 L 51.058594 36.769531 L 50.515625 37.363281 L 49.949219 37.933594 L 49.359375 38.472656 L 48.75 38.984375 L 48.125 39.46875 L 47.476562 39.921875 L 46.808594 40.351562 L 46.125 40.746094 L 45.425781 41.113281 L 44.707031 41.453125 L 43.972656 41.765625 L 43.226562 42.042969 L 42.464844 42.292969 L 41.691406 42.515625 L 40.90625 42.707031 L 40.109375 42.867188 L 39.300781 42.996094 L 38.480469 43.097656 L 37.65625 43.167969 L 36.816406 43.207031 L 35.972656 43.21875 L 35.125 43.195312 Z M 34.265625 43.144531 C 33.847656 43.113281 33.535156 42.746094 33.566406 42.324219 C 33.601562 41.902344 33.964844 41.589844 34.382812 41.621094 Z M 6.070312 41.164062 L 7.476562 41.738281 L 6.519531 40.734375 L 7.640625 40.347656 L 8.714844 40.007812 L 9.753906 39.71875 L 10.757812 39.472656 L 11.722656 39.269531 L 12.660156 39.105469 L 13.570312 38.980469 L 14.453125 38.890625 L 15.308594 38.835938 L 16.148438 38.8125 L 16.964844 38.820312 L 17.765625 38.855469 L 18.554688 38.914062 L 19.328125 38.992188 L 20.09375 39.09375 L 20.855469 39.210938 L 21.609375 39.34375 L 22.363281 39.492188 L 23.121094 39.648438 L 23.878906 39.8125 L 24.644531 39.984375 L 25.421875 40.15625 L 26.210938 40.332031 L 27.015625 40.507812 L 27.839844 40.679688 L 28.683594 40.84375 L 29.554688 41.003906 L 30.453125 41.15625 L 31.378906 41.292969 L 32.34375 41.421875 L 33.34375 41.53125 L 34.382812 41.621094 L 34.265625 43.144531 L 33.195312 43.050781 L 32.164062 42.9375 L 31.171875 42.808594 L 30.21875 42.664062 L 29.292969 42.507812 L 28.402344 42.347656 L 27.539062 42.175781 L 26.699219 42 L 25.886719 41.824219 L 25.09375 41.648438 L 24.316406 41.472656 L 23.554688 41.304688 L 22.808594 41.144531 L 22.066406 40.988281 L 21.335938 40.847656 L 20.609375 40.71875 L 19.882812 40.605469 L 19.152344 40.511719 L 18.421875 40.433594 L 17.679688 40.378906 L 16.929688 40.347656 L 16.164062 40.339844 L 15.378906 40.363281 L 14.574219 40.414062 L 13.746094 40.496094 L 12.894531 40.613281 L 12.007812 40.769531 L 11.089844 40.960938 L 10.136719 41.195312 L 9.144531 41.472656 L 8.109375 41.796875 L 7.03125 42.171875 Z M 7.03125 42.171875 C 6.636719 42.3125 6.203125 42.105469 6.0625 41.707031 C 5.921875 41.3125 6.125 40.875 6.519531 40.734375 Z M 7.03125 42.171875 "/>
<path style=" stroke:none;fill-rule:evenodd;fill:rgb(0%,56.470588%,0%);fill-opacity:1;" d="M 21.242188 29.769531 C 19.125 27.523438 15.90625 19.347656 20.800781 12.070312 C 23.140625 8.171875 30.308594 5.210938 37.648438 5.617188 C 46.320312 6.09375 57.554688 10.226562 58.679688 23.234375 C 59.09375 28.015625 57.273438 32.921875 55.527344 36.140625 C 51.285156 43.941406 38.859375 48.328125 25.980469 44.304688 C 19.773438 42.367188 11.324219 41.449219 3.25 45.183594 L 2.886719 41.945312 C 2.160156 35.4375 13.222656 28.851562 21.242188 29.769531 Z M 6.773438 41.453125 C 11.007812 30.980469 21.269531 32.890625 30.394531 33.605469 C 34.851562 33.957031 39.714844 34.617188 43.023438 30.765625 C 46.230469 27.039062 44.585938 20.917969 40.175781 19.421875 C 38.015625 18.6875 34.894531 19.183594 32.890625 20.320312 L 34.339844 23.402344 C 35.800781 23 36.609375 22.859375 37.777344 22.734375 C 43.152344 22.148438 44.902344 27.097656 40.269531 30.34375 C 34.390625 34.460938 19.527344 29.589844 22.0625 19.28125 C 26.839844 -0.148438 60.953125 10.136719 54.101562 29.941406 C 51.078125 38.671875 43.222656 43.078125 34.324219 42.382812 C 22.839844 41.488281 18.742188 37.140625 6.773438 41.453125 Z M 6.773438 41.453125 "/>
<path style=" stroke:none;fill-rule:evenodd;fill:rgb(4.705882%,68.235294%,4.705882%);fill-opacity:1;" d="M 20.8125 27.347656 C 18.699219 25.105469 15.480469 16.929688 20.371094 9.652344 C 22.714844 5.753906 29.882812 2.789062 37.222656 3.195312 C 45.894531 3.675781 57.128906 7.804688 58.253906 20.816406 C 58.664062 25.597656 56.847656 30.503906 55.097656 33.71875 C 50.859375 41.523438 38.429688 45.910156 25.554688 41.886719 C 19.347656 39.949219 11.097656 39.589844 2.222656 43.085938 C 0.660156 35.132812 11.363281 26.265625 20.8125 27.347656 Z M 6.347656 39.03125 C 10.578125 28.5625 20.839844 30.472656 29.964844 31.1875 C 34.425781 31.535156 39.285156 32.199219 42.597656 28.347656 C 45.804688 24.621094 44.097656 19.785156 39.691406 18.285156 C 37.527344 17.550781 35.050781 17.691406 33.050781 18.828125 C 31.886719 19.484375 31.871094 20.957031 33.066406 21.105469 C 33.699219 21.183594 34.851562 20.242188 36.019531 20.117188 C 41.398438 19.53125 44.476562 24.679688 39.839844 27.925781 C 33.964844 32.042969 19.097656 27.171875 21.636719 16.859375 C 26.414062 -2.566406 60.527344 7.71875 53.675781 27.519531 C 50.652344 36.253906 42.792969 40.65625 33.898438 39.964844 C 22.414062 39.070312 18.316406 34.722656 6.347656 39.03125 Z M 6.347656 39.03125 "/>
</g>
</svg>
