<?xml version="1.0" encoding="UTF-8"?>
<!DOCTYPE svg PUBLIC "-//W3C//DTD SVG 1.1//EN" "http://www.w3.org/Graphics/SVG/1.1/DTD/svg11.dtd">
<!-- Creator: CorelDRAW 2020 (64-Bit) -->
<svg xmlns="http://www.w3.org/2000/svg" xml:space="preserve" width="680px" height="600px" version="1.1" style="shape-rendering:geometricPrecision; text-rendering:geometricPrecision; image-rendering:optimizeQuality; fill-rule:evenodd; clip-rule:evenodd"
viewBox="0 0 680 600"
 xmlns:xlink="http://www.w3.org/1999/xlink"
 xmlns:xodm="http://www.corel.com/coreldraw/odm/2003">
 <defs>
  <style type="text/css">
   <![CDATA[
    .fil1 {fill:#009000}
    .fil2 {fill:#0CAE0C}
    .fil0 {fill:#009000;fill-rule:nonzero}
   ]]>
  </style>
    <clipPath id="id0">
     <path d="M680 595l-680 0 0 -537.99 680 0 0 537.99z"/>
    </clipPath>
 </defs>
 <g id="Capa_x0020_1">
  <metadata id="CorelCorpID_0Corel-Layer"/>
  <g id="_1457051108544">
   <g style="clip-path:url(#id0)">
    <image x="0" y="57.01" width="680" height="537.99" xlink:href="shilaCaracol_Images\shilaCaracol_ImgID1.png"/>
   </g>
   <g>
    <g>
     <path class="fil0" d="M217.51 125.1l14 8.47 -0.23 0.36 -4.47 6.98 -4 7.01 -3.53 7.03 -3.1 7.04 -2.68 7.04 -2.28 7.03 -1.9 7.01 -1.54 6.97 -1.18 6.93 -0.86 6.88 -0.54 6.8 -0.24 6.73 0.04 6.63 0.29 6.53 0.55 6.4 0.78 6.27 0.98 6.12 1.18 5.96 1.36 5.79 1.52 5.59 1.66 5.39 1.78 5.17 1.88 4.93 1.97 4.68 2.04 4.42 2.08 4.13 2.11 3.84 2.1 3.52 2.09 3.19 2.04 2.84 1.96 2.46 1.84 2.06 -11.86 11.28 -2.51 -2.81 -2.49 -3.13 -2.48 -3.45 -2.46 -3.76 -2.44 -4.07 -2.39 -4.36 -2.34 -4.64 -2.27 -4.93 -2.18 -5.18 -2.08 -5.44 -1.95 -5.68 -1.82 -5.92 -1.66 -6.12 -1.49 -6.34 -1.3 -6.53 -1.08 -6.71 -0.85 -6.87 -0.59 -7.04 -0.33 -7.17 -0.04 -7.31 0.27 -7.41 0.59 -7.52 0.95 -7.61 1.31 -7.68 1.7 -7.73 2.11 -7.78 2.53 -7.8 2.98 -7.82 3.44 -7.8 3.91 -7.79 4.42 -7.74 4.92 -7.69 -0.22 0.35zm0.22 -0.35c2.54,-3.74 7.62,-4.72 11.37,-2.19 3.74,2.54 4.71,7.63 2.18,11.37l-13.55 -9.18zm189.08 -72.75l-0.9 16.34 0 0 -7.19 -0.3 -7.17 -0.09 -7.15 0.1 -7.11 0.3 -7.07 0.48 -7.02 0.66 -6.95 0.84 -6.87 1.01 -6.79 1.18 -6.7 1.35 -6.6 1.5 -6.49 1.65 -6.36 1.81 -6.23 1.94 -6.09 2.09 -5.94 2.21 -5.78 2.35 -5.61 2.46 -5.43 2.59 -5.24 2.69 -5.03 2.79 -4.83 2.9 -4.61 2.98 -4.38 3.07 -4.14 3.14 -3.9 3.22 -3.64 3.28 -3.37 3.33 -3.1 3.38 -2.83 3.42 -2.54 3.44 -2.24 3.46 -14 -8.47 2.79 -4.31 3.1 -4.2 3.38 -4.1 3.66 -3.98 3.93 -3.88 4.18 -3.76 4.42 -3.66 4.66 -3.53 4.88 -3.42 5.1 -3.3 5.3 -3.19 5.51 -3.05 5.69 -2.92 5.87 -2.8 6.05 -2.66 6.21 -2.52 6.37 -2.37 6.51 -2.23 6.65 -2.08 6.78 -1.92 6.9 -1.76 7.01 -1.6 7.12 -1.42 7.21 -1.26 7.29 -1.07 7.37 -0.89 7.44 -0.7 7.5 -0.52 7.56 -0.31 7.59 -0.11 7.62 0.1 7.65 0.32 0 0zm234.71 196.25l-16.3 1.42 0 0 -1.4 -12.36 -2 -11.8 -2.55 -11.26 -3.09 -10.73 -3.6 -10.21 -4.09 -9.71 -4.54 -9.22 -4.99 -8.75 -5.4 -8.3 -5.8 -7.85 -6.17 -7.42 -6.53 -7.01 -6.85 -6.59 -7.17 -6.2 -7.45 -5.81 -7.72 -5.44 -7.96 -5.06 -8.19 -4.71 -8.37 -4.35 -8.55 -4.01 -8.7 -3.68 -8.82 -3.35 -8.92 -3.03 -8.99 -2.72 -9.03 -2.42 -9.06 -2.14 -9.06 -1.85 -9.02 -1.57 -8.97 -1.32 -8.89 -1.06 -8.78 -0.82 -8.65 -0.58 0.9 -16.34 9.06 0.61 9.2 0.86 9.32 1.11 9.4 1.38 9.48 1.65 9.52 1.95 9.54 2.25 9.53 2.55 9.51 2.88 9.45 3.21 9.37 3.56 9.27 3.92 9.14 4.29 8.98 4.66 8.8 5.07 8.59 5.47 8.36 5.88 8.1 6.31 7.81 6.76 7.49 7.21 7.14 7.67 6.77 8.14 6.36 8.62 5.93 9.1 5.47 9.6 4.98 10.1 4.46 10.61 3.93 11.12 3.35 11.64 2.76 12.16 2.14 12.69 1.5 13.22 0 0zm-35.02 142.89l-14.35 -7.86 0 0 1.72 -3.19 1.72 -3.3 1.72 -3.39 1.71 -3.48 1.7 -3.58 1.68 -3.66 1.65 -3.75 1.63 -3.82 1.6 -3.9 1.57 -3.97 1.52 -4.04 1.48 -4.09 1.43 -4.16 1.37 -4.22 1.32 -4.27 1.25 -4.31 1.19 -4.36 1.11 -4.4 1.04 -4.44 0.96 -4.47 0.87 -4.5 0.78 -4.52 0.7 -4.55 0.59 -4.56 0.49 -4.58 0.39 -4.58 0.28 -4.59 0.16 -4.6 0.05 -4.59 -0.08 -4.59 -0.2 -4.58 -0.33 -4.57 16.3 -1.42 0.37 5.04 0.22 5.04 0.08 5.03 -0.05 5.01 -0.18 5.01 -0.3 4.99 -0.42 4.97 -0.53 4.94 -0.64 4.92 -0.74 4.89 -0.84 4.85 -0.94 4.81 -1.02 4.78 -1.11 4.73 -1.19 4.68 -1.26 4.64 -1.33 4.58 -1.39 4.52 -1.45 4.46 -1.51 4.4 -1.57 4.33 -1.6 4.26 -1.65 4.18 -1.69 4.11 -1.72 4.03 -1.74 3.95 -1.77 3.86 -1.79 3.77 -1.8 3.68 -1.82 3.57 -1.82 3.48 -1.82 3.38 0 0zm-328.49 91.39l4.85 -15.63 0 0 12.72 3.69 12.69 3.19 12.62 2.69 12.54 2.2 12.46 1.72 12.34 1.26 12.23 0.79 12.09 0.35 11.93 -0.09 11.77 -0.52 11.59 -0.94 11.39 -1.35 11.18 -1.74 10.95 -2.14 10.7 -2.51 10.45 -2.88 10.17 -3.24 9.88 -3.58 9.57 -3.92 9.26 -4.25 8.92 -4.56 8.57 -4.87 8.2 -5.16 7.82 -5.44 7.43 -5.71 7.02 -5.97 6.6 -6.21 6.16 -6.46 5.71 -6.68 5.26 -6.89 4.78 -7.1 4.29 -7.3 14.35 7.86 -4.8 8.16 -5.32 7.91 -5.82 7.64 -6.31 7.38 -6.77 7.09 -7.21 6.8 -7.65 6.5 -8.06 6.19 -8.45 5.88 -8.84 5.56 -9.19 5.22 -9.55 4.89 -9.88 4.53 -10.2 4.18 -10.5 3.81 -10.79 3.43 -11.05 3.05 -11.32 2.66 -11.55 2.25 -11.79 1.84 -11.99 1.42 -12.19 0.98 -12.37 0.55 -12.53 0.09 -12.68 -0.36 -12.82 -0.84 -12.94 -1.31 -13.04 -1.81 -13.12 -2.3 -13.2 -2.81 -13.26 -3.33 -13.3 -3.86 0 0zm-251.06 2.5l16.26 -1.84 -11.55 -6.52 8.41 -3.7 8.43 -3.42 8.44 -3.13 8.45 -2.85 8.45 -2.58 8.45 -2.31 8.44 -2.06 8.42 -1.81 8.4 -1.56 8.38 -1.34 8.34 -1.1 8.31 -0.88 8.26 -0.68 8.22 -0.46 8.16 -0.27 8.1 -0.09 8.04 0.1 7.97 0.28 7.9 0.44 7.82 0.61 7.73 0.75 7.65 0.9 7.55 1.04 7.45 1.17 7.35 1.29 7.23 1.41 7.13 1.52 7 1.62 6.88 1.71 6.75 1.8 6.61 1.88 6.48 1.95 -4.85 15.63 -6.22 -1.88 -6.37 -1.8 -6.49 -1.73 -6.61 -1.65 -6.73 -1.55 -6.84 -1.46 -6.95 -1.35 -7.06 -1.24 -7.14 -1.13 -7.24 -0.99 -7.33 -0.87 -7.4 -0.72 -7.49 -0.58 -7.55 -0.42 -7.61 -0.27 -7.68 -0.09 -7.73 0.08 -7.78 0.25 -7.82 0.45 -7.86 0.64 -7.9 0.84 -7.92 1.05 -7.95 1.26 -7.97 1.49 -7.99 1.71 -7.99 1.95 -8 2.19 -8 2.44 -7.99 2.7 -7.98 2.96 -7.97 3.23 -7.96 3.51 -11.54 -6.52zm11.54 6.52c-4.1,1.88 -8.96,0.08 -10.85,-4.02 -1.89,-4.11 -0.09,-8.97 4.02,-10.86l6.83 14.88zm0.81 -43.05l3.91 34.69 -16.26 1.84 -3.91 -34.7 16.26 -1.83zm184.05 -123.92l11.86 -11.28 -6.85 13.77 -7.74 -0.64 -7.93 -0.22 -8.09 0.2 -8.22 0.61 -8.32 1 -8.38 1.39 -8.42 1.76 -8.42 2.11 -8.39 2.46 -8.33 2.78 -8.23 3.1 -8.11 3.4 -7.96 3.68 -7.77 3.94 -7.56 4.19 -7.3 4.43 -7.03 4.65 -6.71 4.84 -6.38 5.03 -6 5.18 -5.61 5.33 -5.18 5.46 -4.71 5.55 -4.24 5.63 -3.72 5.69 -3.2 5.73 -2.64 5.74 -2.08 5.73 -1.5 5.71 -0.9 5.69 -0.31 5.65 0.32 5.63 -16.26 1.83 -0.42 -7.44 0.39 -7.4 1.17 -7.33 1.88 -7.21 2.57 -7.08 3.19 -6.94 3.79 -6.79 4.33 -6.62 4.85 -6.44 5.32 -6.27 5.78 -6.09 6.19 -5.88 6.58 -5.69 6.94 -5.47 7.26 -5.24 7.57 -5 7.85 -4.76 8.09 -4.49 8.31 -4.22 8.5 -3.93 8.66 -3.63 8.81 -3.31 8.91 -2.98 8.99 -2.63 9.04 -2.27 9.08 -1.9 9.07 -1.5 9.05 -1.09 9 -0.67 8.92 -0.22 8.81 0.25 8.68 0.72 -6.85 13.77zm6.85 -13.77c4.49,0.51 7.71,4.56 7.21,9.05 -0.51,4.49 -4.56,7.72 -9.05,7.21l1.84 -16.26zm98.49 41.1l-1.27 16.32 0 0 -9.31 -0.76 -9.36 -0.8 -9.37 -0.82 -9.38 -0.82 -9.37 -0.78 -9.36 -0.72 -9.32 -0.64 -9.26 -0.53 -9.2 -0.38 -9.13 -0.23 -9.02 -0.04 -8.92 0.18 -8.78 0.41 -8.65 0.68 -8.49 0.96 -8.31 1.27 -8.13 1.6 -7.93 1.95 -7.72 2.32 -7.5 2.73 -7.27 3.14 -7.03 3.58 -6.79 4.05 -6.54 4.55 -6.28 5.07 -6.03 5.62 -5.77 6.22 -5.49 6.84 -5.21 7.5 -4.92 8.2 -4.6 8.93 -4.28 9.7 -15.16 -6.17 4.67 -10.57 5.07 -9.84 5.47 -9.12 5.84 -8.42 6.22 -7.74 6.56 -7.08 6.9 -6.43 7.2 -5.81 7.48 -5.2 7.74 -4.62 7.98 -4.07 8.2 -3.54 8.38 -3.05 8.56 -2.58 8.71 -2.14 8.85 -1.74 8.98 -1.37 9.09 -1.03 9.18 -0.72 9.26 -0.44 9.33 -0.18 9.39 0.04 9.43 0.23 9.47 0.4 9.48 0.54 9.48 0.64 9.48 0.74 9.45 0.79 9.41 0.81 9.37 0.83 9.3 0.79 9.22 0.75 0 0zm0 0c4.5,0.35 7.87,4.29 7.52,8.79 -0.35,4.51 -4.29,7.88 -8.79,7.53l1.27 -16.32zm129.51 -27.61l12.37 10.71 0 0 -3.68 4.04 -3.79 3.75 -3.91 3.48 -4.01 3.2 -4.1 2.94 -4.19 2.68 -4.27 2.44 -4.33 2.19 -4.41 1.96 -4.45 1.74 -4.51 1.53 -4.55 1.33 -4.58 1.15 -4.62 0.96 -4.64 0.81 -4.66 0.65 -4.68 0.51 -4.69 0.37 -4.7 0.26 -4.71 0.15 -4.71 0.05 -4.71 -0.04 -4.71 -0.11 -4.69 -0.18 -4.69 -0.23 -4.67 -0.29 -4.65 -0.32 -4.63 -0.34 -4.6 -0.37 -4.57 -0.37 -4.54 -0.36 -4.5 -0.36 1.27 -16.32 4.54 0.36 4.55 0.37 4.56 0.37 4.55 0.36 4.54 0.34 4.54 0.31 4.52 0.28 4.5 0.22 4.48 0.17 4.46 0.11 4.42 0.04 4.39 -0.05 4.35 -0.14 4.3 -0.24 4.26 -0.34 4.21 -0.45 4.15 -0.58 4.09 -0.71 4.03 -0.84 3.96 -0.99 3.9 -1.14 3.83 -1.3 3.76 -1.47 3.68 -1.64 3.62 -1.83 3.54 -2.02 3.48 -2.22 3.4 -2.44 3.33 -2.67 3.26 -2.9 3.2 -3.15 3.11 -3.42 0 0zm0 0c2.96,-3.42 8.13,-3.79 11.55,-0.83 3.41,2.96 3.78,8.13 0.82,11.54l-12.37 -10.71zm-27.16 -108.45l5.23 -15.51 0 0 4.9 1.85 4.71 2.16 4.5 2.46 4.29 2.73 4.07 2.99 3.85 3.23 3.61 3.46 3.38 3.66 3.14 3.86 2.89 4.04 2.66 4.19 2.41 4.35 2.15 4.47 1.9 4.59 1.65 4.69 1.38 4.79 1.11 4.86 0.85 4.92 0.58 4.97 0.29 5.01 0.02 5.02 -0.28 5.04 -0.57 5.02 -0.87 5.01 -1.17 4.96 -1.49 4.91 -1.79 4.85 -2.12 4.76 -2.44 4.65 -2.77 4.54 -3.11 4.39 -3.43 4.24 -12.37 -10.71 2.75 -3.4 2.48 -3.51 2.21 -3.62 1.95 -3.72 1.69 -3.8 1.44 -3.88 1.19 -3.95 0.95 -4 0.7 -4.04 0.46 -4.07 0.23 -4.09 -0.02 -4.1 -0.24 -4.09 -0.46 -4.06 -0.7 -4.03 -0.91 -3.98 -1.13 -3.91 -1.35 -3.83 -1.55 -3.75 -1.75 -3.63 -1.95 -3.52 -2.14 -3.39 -2.33 -3.24 -2.51 -3.09 -2.69 -2.92 -2.87 -2.74 -3.03 -2.55 -3.19 -2.35 -3.36 -2.14 -3.52 -1.92 -3.67 -1.68 -3.84 -1.45 0 0zm0 0c-4.29,-1.44 -6.59,-6.08 -5.14,-10.37 1.44,-4.28 6.08,-6.58 10.37,-5.14l-5.23 15.51zm-68.63 -1.65l-14.79 7.01 3.38 -10.64 2.27 -1.23 2.33 -1.18 2.39 -1.13 2.44 -1.08 2.49 -1.02 2.54 -0.97 2.58 -0.92 2.61 -0.87 2.66 -0.81 2.69 -0.75 2.71 -0.7 2.74 -0.65 2.77 -0.58 2.78 -0.53 2.8 -0.46 2.81 -0.41 2.81 -0.34 2.82 -0.28 2.82 -0.21 2.82 -0.15 2.81 -0.08 2.81 -0.01 2.79 0.06 2.77 0.13 2.76 0.21 2.73 0.29 2.7 0.36 2.68 0.45 2.64 0.52 2.61 0.62 2.57 0.7 2.52 0.79 -5.23 15.51 -1.92 -0.6 -1.98 -0.54 -2.04 -0.49 -2.11 -0.42 -2.17 -0.36 -2.21 -0.29 -2.26 -0.24 -2.3 -0.17 -2.33 -0.11 -2.37 -0.05 -2.39 0 -2.42 0.07 -2.43 0.13 -2.44 0.19 -2.46 0.24 -2.45 0.3 -2.45 0.35 -2.44 0.41 -2.44 0.46 -2.41 0.51 -2.4 0.56 -2.37 0.61 -2.34 0.66 -2.3 0.7 -2.26 0.75 -2.22 0.79 -2.17 0.83 -2.12 0.87 -2.05 0.91 -1.99 0.94 -1.93 0.97 -1.85 1.01 3.39 -10.64zm-3.39 10.64c-3.93,2.21 -8.92,0.82 -11.14,-3.12 -2.22,-3.94 -0.82,-8.93 3.12,-11.15l8.02 14.27zm4.23 29.38l-15.63 -33.01 14.79 -7.01 15.63 33.02 -5.25 11.4 -9.54 -4.4zm14.79 -7c1.93,4.08 0.19,8.96 -3.89,10.89 -4.09,1.94 -8.97,0.19 -10.9,-3.89l14.79 -7zm28.83 -11.78l1.76 16.27 0 0 -1.15 0.13 -1.13 0.12 -1.1 0.13 -1.09 0.13 -1.06 0.13 -1.05 0.14 -1.04 0.14 -1.03 0.14 -1.01 0.14 -1.02 0.15 -1 0.16 -1.01 0.16 -1.01 0.17 -1 0.17 -1.02 0.18 -1.02 0.19 -1.03 0.2 -1.04 0.21 -1.05 0.21 -1.08 0.23 -1.08 0.23 -1.12 0.25 -1.13 0.26 -1.16 0.27 -1.18 0.28 -1.22 0.3 -1.24 0.31 -1.28 0.33 -1.32 0.33 -1.35 0.36 -1.39 0.37 -1.43 0.39 -4.29 -15.8 1.48 -0.4 1.45 -0.38 1.41 -0.37 1.38 -0.36 1.35 -0.34 1.31 -0.33 1.29 -0.31 1.27 -0.31 1.24 -0.29 1.21 -0.27 1.2 -0.27 1.19 -0.26 1.16 -0.24 1.15 -0.24 1.14 -0.22 1.13 -0.22 1.12 -0.21 1.11 -0.19 1.11 -0.2 1.1 -0.18 1.1 -0.18 1.1 -0.17 1.1 -0.16 1.1 -0.16 1.11 -0.15 1.12 -0.15 1.13 -0.14 1.13 -0.14 1.14 -0.14 1.17 -0.14 1.18 -0.13 1.19 -0.13 0 0zm0 0c4.49,-0.48 8.53,2.76 9.01,7.26 0.49,4.49 -2.76,8.53 -7.25,9.01l-1.76 -16.27zm32.44 96.41l-9.34 -13.43 0 0 4.11 -3.04 3.72 -3.1 3.32 -3.13 2.95 -3.15 2.57 -3.16 2.21 -3.15 1.86 -3.12 1.53 -3.08 1.2 -3.02 0.9 -2.96 0.6 -2.88 0.32 -2.8 0.05 -2.7 -0.2 -2.61 -0.45 -2.51 -0.69 -2.42 -0.92 -2.32 -1.16 -2.22 -1.39 -2.12 -1.64 -2.01 -1.88 -1.91 -2.14 -1.78 -2.4 -1.65 -2.67 -1.5 -2.94 -1.33 -3.21 -1.15 -3.48 -0.94 -3.76 -0.72 -4.04 -0.47 -4.3 -0.21 -4.58 0.07 -4.83 0.38 -1.76 -16.27 5.81 -0.45 5.61 -0.1 5.39 0.27 5.17 0.6 4.95 0.95 4.7 1.27 4.46 1.59 4.2 1.91 3.92 2.2 3.63 2.5 3.33 2.77 3 3.04 2.66 3.27 2.3 3.5 1.93 3.69 1.53 3.87 1.15 4.01 0.73 4.12 0.33 4.21 -0.09 4.27 -0.49 4.31 -0.9 4.32 -1.3 4.32 -1.71 4.29 -2.1 4.24 -2.5 4.19 -2.9 4.12 -3.28 4.04 -3.68 3.95 -4.08 3.83 -4.47 3.72 -4.86 3.59 0 0zm0 0c-3.71,2.58 -8.81,1.66 -11.39,-2.05 -2.58,-3.71 -1.66,-8.81 2.05,-11.38l9.34 13.43zm-209.12 -127.25l15.88 3.94 0 0 -1.87 9.43 -0.9 9.03 0.02 8.64 0.88 8.27 1.68 7.93 2.44 7.58 3.17 7.26 3.84 6.93 4.5 6.6 5.11 6.28 5.67 5.92 6.2 5.57 6.67 5.2 7.1 4.82 7.48 4.42 7.81 4.01 8.08 3.59 8.29 3.16 8.46 2.72 8.56 2.26 8.61 1.81 8.62 1.34 8.55 0.87 8.43 0.38 8.26 -0.09 8.03 -0.58 7.74 -1.06 7.39 -1.54 6.99 -2.02 6.54 -2.49 6.04 -2.96 5.51 -3.4 9.34 13.43 -6.94 4.3 -7.44 3.64 -7.86 3 -8.24 2.38 -8.55 1.79 -8.83 1.21 -9.04 0.65 -9.23 0.11 -9.35 -0.43 -9.43 -0.96 -9.46 -1.47 -9.46 -1.98 -9.38 -2.49 -9.28 -2.97 -9.11 -3.48 -8.91 -3.96 -8.64 -4.44 -8.34 -4.92 -7.96 -5.41 -7.56 -5.89 -7.08 -6.37 -6.55 -6.84 -5.96 -7.33 -5.31 -7.8 -4.59 -8.26 -3.8 -8.73 -2.95 -9.16 -2.03 -9.57 -1.05 -9.97 -0.02 -10.31 1.05 -10.65 2.18 -10.94 0 0zm0 0c1.08,-4.38 5.52,-7.06 9.91,-5.97 4.39,1.09 7.06,5.52 5.97,9.91l-15.88 -3.94zm361.49 118.87l-15.45 -5.38 0 0 5.41 -18.73 3.05 -18.01 0.85 -17.29 -1.2 -16.56 -3.13 -15.82 -4.91 -15.09 -6.58 -14.32 -8.13 -13.54 -9.57 -12.72 -10.88 -11.86 -12.07 -10.94 -13.12 -9.98 -14.04 -8.97 -14.82 -7.92 -15.46 -6.81 -15.97 -5.67 -16.31 -4.48 -16.53 -3.25 -16.59 -1.98 -16.52 -0.68 -16.29 0.66 -15.93 2.02 -15.43 3.41 -14.79 4.84 -14.03 6.27 -13.14 7.75 -12.14 9.25 -11.04 10.81 -9.83 12.42 -8.5 14.09 -7.05 15.85 -5.47 17.7 -15.88 -3.94 6.02 -19.48 7.86 -17.67 9.56 -15.86 11.12 -14.05 12.5 -12.24 13.72 -10.46 14.76 -8.71 15.65 -7 16.37 -5.35 16.94 -3.75 17.37 -2.21 17.66 -0.71 17.82 0.73 17.84 2.13 17.72 3.48 17.47 4.8 17.1 6.07 16.58 7.31 15.93 8.5 15.14 9.68 14.21 10.81 13.14 11.93 11.93 12.99 10.56 14.04 9.04 15.05 7.35 16.01 5.5 16.92 3.51 17.78 1.35 18.55 -0.95 19.25 -3.37 19.89 -5.91 20.44 0 0zm0 0c-1.48,4.27 -6.15,6.52 -10.42,5.04 -4.26,-1.49 -6.52,-6.16 -5.03,-10.42l15.45 5.38zm-221.83 138.8l1.26 -16.32 0 0 8.69 0.52 8.6 0.21 8.53 -0.09 8.42 -0.4 8.33 -0.71 8.23 -1 8.11 -1.3 7.99 -1.6 7.86 -1.89 7.73 -2.19 7.58 -2.48 7.44 -2.77 7.29 -3.05 7.12 -3.35 6.96 -3.62 6.78 -3.91 6.6 -4.19 6.41 -4.47 6.22 -4.75 6.02 -5.03 5.81 -5.3 5.6 -5.58 5.38 -5.86 5.16 -6.13 4.92 -6.41 4.68 -6.68 4.44 -6.96 4.18 -7.23 3.92 -7.5 3.65 -7.77 3.38 -8.05 3.09 -8.32 15.45 5.38 -3.32 8.95 -3.64 8.68 -3.95 8.4 -4.24 8.12 -4.54 7.84 -4.81 7.56 -5.1 7.26 -5.36 6.98 -5.61 6.68 -5.87 6.39 -6.11 6.09 -6.35 5.79 -6.57 5.49 -6.78 5.18 -7 4.87 -7.19 4.57 -7.39 4.26 -7.56 3.94 -7.74 3.63 -7.91 3.32 -8.06 3 -8.21 2.68 -8.35 2.37 -8.49 2.04 -8.61 1.72 -8.72 1.41 -8.84 1.07 -8.93 0.76 -9.03 0.42 -9.11 0.11 -9.18 -0.23 -9.26 -0.55 0 0zm0 0c-4.5,-0.35 -7.87,-4.29 -7.53,-8.79 0.35,-4.51 4.29,-7.88 8.79,-7.53l-1.26 16.32zm-304.31 -21.23l15.16 6.17 -10.33 -10.79 12.08 -4.13 11.63 -3.62 11.2 -3.11 10.82 -2.64 10.45 -2.18 10.11 -1.75 9.81 -1.34 9.52 -0.95 9.26 -0.59 9.04 -0.25 8.83 0.07 8.65 0.36 8.5 0.63 8.37 0.87 8.26 1.07 8.2 1.27 8.15 1.43 8.14 1.57 8.15 1.67 8.19 1.77 8.27 1.82 8.38 1.87 8.52 1.87 8.69 1.87 8.89 1.84 9.12 1.79 9.4 1.71 9.69 1.61 10.02 1.49 10.39 1.35 10.79 1.17 11.22 0.99 -1.26 16.32 -11.56 -1.02 -11.12 -1.21 -10.71 -1.39 -10.31 -1.53 -9.96 -1.66 -9.62 -1.75 -9.32 -1.82 -9.05 -1.87 -8.79 -1.9 -8.57 -1.89 -8.38 -1.86 -8.21 -1.81 -8.08 -1.74 -7.98 -1.64 -7.9 -1.52 -7.85 -1.38 -7.85 -1.21 -7.86 -1.03 -7.91 -0.82 -7.99 -0.59 -8.11 -0.34 -8.27 -0.06 -8.45 0.23 -8.68 0.55 -8.93 0.89 -9.22 1.26 -9.55 1.65 -9.9 2.07 -10.3 2.51 -10.72 2.98 -11.17 3.47 -11.65 3.99 -10.34 -10.79zm10.34 10.79c-4.26,1.52 -8.94,-0.7 -10.46,-4.95 -1.52,-4.26 0.69,-8.94 4.95,-10.46l5.51 15.41z"/>
     <path id="1" class="fil1" d="M229.28 318.94c-22.85,-24.03 -57.6,-111.64 -4.77,-189.6 25.28,-41.79 102.63,-73.52 181.85,-69.17 93.62,5.14 214.88,49.38 227.01,188.79 4.46,51.21 -15.17,103.78 -34.04,138.25 -45.78,83.6 -179.91,130.58 -318.9,87.5 -66.99,-20.76 -158.2,-30.63 -245.35,9.4l-3.91 -34.69c-7.85,-69.75 111.53,-140.28 198.11,-130.48zm-156.16 125.19c45.68,-112.21 156.44,-91.72 254.93,-84.06 48.12,3.74 100.6,10.84 136.34,-30.42 34.6,-39.94 16.84,-105.51 -30.74,-121.55 -23.33,-7.87 -57.03,-2.55 -78.64,9.61l15.63 33.01c15.77,-4.28 24.49,-5.78 37.11,-7.14 58.02,-6.28 76.93,46.76 26.89,81.55 -63.43,44.1 -223.88,-8.09 -196.51,-118.56 51.58,-208.16 419.78,-97.95 345.83,114.21 -32.62,93.57 -117.44,140.76 -213.48,133.33 -123.95,-9.59 -168.17,-56.16 -297.36,-9.98z"/>
    </g>
    <path class="fil2" d="M224.66 293.02c-22.84,-24.03 -57.59,-111.64 -4.77,-189.6 25.29,-41.79 102.64,-73.52 181.86,-69.17 93.61,5.14 214.87,49.38 227.01,188.79 4.46,51.21 -15.17,103.78 -34.05,138.25 -45.77,83.6 -179.9,130.59 -318.89,87.51 -67,-20.77 -156.04,-24.62 -251.82,12.84 -16.89,-85.2 98.65,-180.23 200.66,-168.62zm-156.15 125.19c45.68,-112.2 156.44,-91.72 254.93,-84.06 48.12,3.74 100.59,10.84 136.34,-30.41 34.6,-39.95 16.19,-91.77 -31.38,-107.82 -23.34,-7.86 -50.08,-6.35 -71.68,5.8 -12.54,7.06 -12.71,22.84 0.18,24.41 6.82,0.83 19.28,-9.23 31.9,-10.59 58.03,-6.27 91.27,48.88 41.23,83.68 -63.43,44.09 -223.88,-8.1 -196.51,-118.57 51.58,-208.16 419.78,-97.95 345.83,114.21 -32.62,93.58 -117.44,140.76 -213.48,133.33 -123.95,-9.59 -168.17,-56.16 -297.36,-9.98z"/>
   </g>
  </g>
 </g>
</svg>
